<svg width="54" height="13" viewBox="0 0 54 13" fill="none" xmlns="http://www.w3.org/2000/svg">
    <path d="M9.83134 6.53066C10.1966 6.13998 11.3724 3.25151 11.0272 3.02404C9.76619 2.19301 7.97973 2.69805 6.69596 3.16931C4.95508 3.80836 2.79584 4.93659 2.15172 6.86553C1.65291 8.35932 2.35415 10.1156 4.70012 9.8436C6.40582 9.69026 7.98265 8.45299 9.09927 7.36192C9.64788 6.82587 10.1245 6.20816 10.45 5.48957C10.6511 5.04536 10.907 4.12576 11.0272 3.65815C11.1278 3.267 10.9226 3.80716 10.8725 4.17005C10.7766 4.86544 10.6883 5.60659 10.7518 6.30873C10.839 7.27264 11.7244 9.4057 12.8885 9.16568C13.8937 8.95842 14.371 8.80841 15.3195 8.38224C16.6652 7.77757 17.8054 6.34153 18.9728 5.42097C19.9794 4.62734 20.9655 3.79939 22.0817 3.18545C22.1406 3.15305 23.1925 2.55714 23.0176 2.74876C22.6823 3.1162 22.0575 3.73769 21.8021 4.17005C21.2216 4.68478 20.5465 5.69472 20.1122 6.53066C19.7031 7.31842 19.1231 8.28165 18.9728 9.16568C18.9306 9.41417 18.4234 10.7917 18.9728 10.549C19.2995 10.4047 20.31 9.69063 20.5866 9.4656C21.2706 8.90911 22.7906 7.71123 23.4228 7.0822C24.4941 6.01632 24.5603 5.89098 25.7904 5.03762C26.8941 4.27193 29.1375 2.64798 30.5132 2.74876C32.5391 2.58016 31.2422 4.48214 31.2384 5.15061C30.8875 6.30872 30.6187 7.24205 30.5132 8.16494C30.4689 8.55251 30.4603 9.80275 31 9.89895C31.6754 10.0193 33.0375 9.51215 33.5 9.07743C34.9476 7.71686 35.0861 7.32432 36.5 6.07743C37.7197 4.91528 40.0469 3.48512 41.7151 2.7486C43.0469 2.16063 45.2771 1.49419 45.5 2.57759C45.8087 4.07754 44.8482 4.53989 44.5 5.15061C44.0691 5.90651 43.276 7.29825 42.8708 8.16494C42.5911 8.50623 42.3431 9.39671 42.6682 9.89895C43.1574 10.6546 45.3792 9.09382 46 8.57743C49.6465 5.54402 50.8793 4.51074 52.5 4.07739" />
</svg>
