<svg width="46" height="13" viewBox="0 0 46 13" fill="none" xmlns="http://www.w3.org/2000/svg">
    <path d="M11.5244 3.40627C11.1647 1.63743 7.19066 2.77117 5.97987 3.40627C4.43038 4.21902 1.1239 7.03538 2.21758 9.20838C3.53538 11.8267 6.96998 9.63528 8.55406 7.93855C11.3264 4.96912 12.2603 1.58343 11.5244 3.40627ZM11.5244 3.40627C10.9828 4.74787 10.7944 8.28765 12.1185 9.20838C12.7879 9.67387 16.0026 8.55903 16.6965 7.93855C17.9673 6.80242 20.8435 4.88314 21.7682 3.40627C22.291 2.57131 21.958 2.89199 22.6136 2.17557C23.4032 1.31273 21.2665 3.85207 20.8314 4.97588C20.2165 6.56411 19.3089 9.90041 21.4255 9.95297C23.2857 9.99918 26.376 6.92347 26.376 6.92347C26.376 6.92347 30.4525 2.24488 33.3068 2.812C35.089 3.1661 34.889 8.16778 34.7796 9.30379C34.2585 14.7136 41.4257 5.62511 44 3.67757" />
</svg>
