<svg width="73" height="41" viewBox="0 0 73 41" fill="none" xmlns="http://www.w3.org/2000/svg">
    <path d="M48.5048 12.2756L30.6453 40C35.4078 29.3092 36.863 20.5198 36.9953 17.4615C36.9953 11.5576 34.0187 9.28375 33.0265 8.48596C29.8515 5.93292 28.1319 6.09249 27.6688 6.29195C31.9551 3.73888 36.0148 3.19854 37.9877 2.90111C49.894 1.10609 59.6176 2.43577 63.1895 3.10062C69.6983 4.85588 70.7302 7.88756 70.9285 9.2838C71.5791 13.8647 67.6211 17.3285 65.9675 18.4588C59.4587 22.6075 51.6137 24.1765 48.5048 24.4425C40.2497 25.0807 32.3651 25.1073 29.4546 25.0408C15.0083 23.9239 7.42787 21.1182 5.44348 19.855C1.63344 17.1424 1.73927 15.1345 2.26845 14.4697" />
</svg>
