<svg width="52" height="47" viewBox="0 0 52 47" fill="none" xmlns="http://www.w3.org/2000/svg">
    <path d="M16.788 12.0896C10.7326 15.2869 6.80977 22.7389 5.02355 26.0775C2.13698 31.4729 -0.0119423 39.9525 5.02363 43.5127C6.04492 44.2348 7.99749 46.2601 16.2026 43.8622C20.9889 42.4634 27.3774 38.1974 31.6361 35.2696C36.2208 32.1176 39.8412 28.4755 43.4097 23.8794C45.4259 21.2826 47.445 17.2247 47.0696 13.2886C46.2169 4.34916 39.4193 0.378281 32.6335 2.6093C23.6633 5.55853 13.0768 17.2851 13.0768 27.0767C13.8123 31.7672 17.0021 34.2359 21.3459 36.5069C24.9146 38.3726 29.4987 38.7274 33.3919 39.0663C36.8467 39.3671 40.0749 39.7771 43.4097 40.6899C46.1829 41.4491 47.7762 42.2375 50 43.8622" />
</svg>
